<svg width="32" height="26" viewBox="0 0 32 26" fill="none" xmlns="http://www.w3.org/2000/svg">
<path d="M30.2297 18.6328H1.62688C0.729835 18.6328 0 17.9033 0 17.0063V1.62649C0 0.72964 0.729835 0 1.62688 0H30.2297C31.1264 0 31.8563 0.72964 31.8563 1.62649V17.0063C31.8563 17.9033 31.1264 18.6328 30.2297 18.6328ZM1.62688 1.31385C1.45434 1.31385 1.31372 1.45408 1.31372 1.62649V17.0063C1.31372 17.1788 1.45434 17.3191 1.62688 17.3191H30.2297C30.4021 17.3191 30.5426 17.1788 30.5426 17.0063V1.62649C30.5426 1.45408 30.4022 1.31385 30.2297 1.31385H1.62688Z" fill="white"/>
<path d="M12.5279 14.3086C12.3122 14.1906 12.1719 13.9707 12.1719 13.7249V4.90795C12.1719 4.66207 12.3093 4.43693 12.5279 4.32413C12.7463 4.2114 13.0092 4.23019 13.2096 4.3727L19.4091 8.78116C19.5826 8.90443 19.6853 9.10389 19.6853 9.31648C19.6853 9.52914 19.5826 9.7286 19.4091 9.85186C19.4091 9.85186 14.7593 13.158 13.2096 14.2602C13.0964 14.3407 12.8522 14.4862 12.5279 14.3086ZM13.4859 6.18116V12.4517L17.8948 9.31648L13.4859 6.18116Z" fill="white"/>
<path d="M31.1995 22.3617H18.6436C18.352 21.2448 17.3344 20.4182 16.1274 20.4182C14.9206 20.4182 13.9033 21.2448 13.6116 22.3617H0.656891C0.294184 22.3617 0 22.6559 0 23.0186C0 23.3814 0.294184 23.6755 0.656891 23.6755H13.6117C13.9033 24.7924 14.9207 25.6191 16.1275 25.6191C17.3345 25.6191 18.3521 24.7923 18.6436 23.6755H31.1995C31.562 23.6755 31.8563 23.3815 31.8563 23.0186C31.8563 22.6559 31.562 22.3617 31.1995 22.3617ZM16.1274 24.3052C15.4183 24.3052 14.841 23.728 14.841 23.0185C14.841 22.3091 15.4183 21.732 16.1274 21.732C16.8369 21.732 17.4141 22.3091 17.4141 23.0185C17.4141 23.7281 16.8369 24.3052 16.1274 24.3052Z" fill="white"/>
</svg>
